[URL=http://imagecurl.com/viewer.php?file=82338578377012679967.png][IMG]http://imagecurl.com/images/82338578377012679967_thumb.png[/IMG][/URL]
[URL=http://imagecurl.com/viewer.php?file=07242020636229577926.png][IMG]http://imagecurl.com/images/07242020636229577926_thumb.png[/IMG][/URL]
[URL=http://imagecurl.com/viewer.php?file=55365450642264110992.png][IMG]http://imagecurl.com/images/55365450642264110992_thumb.png[/IMG][/URL]
[URL=http://imagecurl.com/viewer.php?file=80150749878769568182.png][IMG]http://imagecurl.com/images/80150749878769568182_thumb.png[/IMG][/URL]
[URL=http://imagecurl.com/viewer.php?file=25434987098840430723.png][IMG]http://imagecurl.com/images/25434987098840430723_thumb.png[/IMG][/URL]



[mediainfo]
Video
ID                                       : 1
Format                                   : AVC
Format/Info                              : Advanced Video Codec
Format profile                           : High@L5.1
Format settings, CABAC                   : Yes
Format settings, ReFrames                : 5 frames
Codec ID                                 : V_MPEG4/ISO/AVC
Duration                                 : 25mn 48s
Bit rate                                 : 21.3 Mbps
Width                                    : 3 840 pixels
Height                                   : 1 604 pixels
Display aspect ratio                     : 2.40:1
Frame rate mode                          : Constant
Frame rate                               : 25.000 fps
Color space                              : YUV
Chroma subsampling                       : 4:2:0
Bit depth                                : 8 bits
Scan type                                : Progressive
Bits/(Pixel*Frame)                       : 0.139
Stream size                              : 3.85 GiB (97%)
Writing library                          : x264 core 148 r2638 7599210
Encoding settings                        : cabac=1 / ref=5 / deblock=1:-3:-3 / analyse=0x3:0x133 / me=umh / subme=10 / psy=1 / psy_rd=1.00:0.00 / mixed_ref=1 / me_range=48 / chroma_me=1 / trellis=2 / 8x8dct=1 / cqm=0 / deadzone=21,11 / fast_pskip=1 / chroma_qp_offset=-2 / threads=12 / lookahead_threads=2 / sliced_threads=0 / nr=0 / decimate=0 / interlaced=0 / bluray_compat=0 / constrained_intra=0 / bframes=8 / b_pyramid=2 / b_adapt=2 / b_bias=0 / direct=3 / weightb=1 / open_gop=0 / weightp=2 / keyint=250 / keyint_min=25 / scenecut=40 / intra_refresh=0 / rc_lookahead=60 / rc=crf / mbtree=1 / crf=17.0 / qcomp=0.70 / qpmin=0 / qpmax=69 / qpstep=4 / vbv_maxrate=300000 / vbv_bufsize=300000 / crf_max=0.0 / nal_hrd=none / filler=0 / ip_ratio=1.40 / aq=1:0.70
Default                                  : Yes
Forced                                   : No

Audio
ID                                       : 2
Format                                   : E-AC-3
Format/Info                              : Audio Coding 3
Format settings, Endianness              : Big
Codec ID                                 : A_EAC3
Duration                                 : 25mn 48s
Bit rate mode                            : Constant
Bit rate                                 : 640 Kbps
Channel(s)                               : 6 channels
Channel positions                        : Front: L C R, Side: L R, LFE
Sampling rate                            : 48.0 KHz
Frame rate                               : 187.500 fps (256 spf)
Compression mode                         : Lossy
Stream size                              : 118 MiB (3%)
Language                                 : English
Default                                  : Yes
Forced                                   : No

Text
ID                                       : 3
Format                                   : UTF-8
Codec ID                                 : S_TEXT/UTF8
Codec ID/Info                            : UTF-8 Plain Text
Duration                                 : 24mn 45s
Bit rate                                 : 78 bps
Count of elements                        : 566
Stream size                              : 14.2 KiB (0%)
Language                                 : English
Default                                  : Yes
Forced                                   : No



[/mediainfo]
